<?xml version="1.0" encoding="UTF-8" standalone="no"?>
<svg
   width="158.83"
   height="168.87"
   viewBox="0 0 158.83 168.87"
   version="1.1"
   id="svg2"
   xmlns="http://www.w3.org/2000/svg"
   xmlns:svg="http://www.w3.org/2000/svg">
  <defs
     id="defs2" />
  <g
     id="g2"
     style="fill:#00ff00"
     transform="translate(-22,-14)">
    <path
       d="m 87.71,14.07 0.15,0.28 0.02,0.37 0.03,0.88 -0.03,0.65 0.03,0.7 0.07,0.68 0.06,0.44 0.3,2 0.22,1.29 0.48,2.75 0.3,1.55 0.63,3.19 0.35,1.65 1.11,5.29 0.78,3.72 0.37,1.81 0.74,3.56 0.33,1.57 0.61,2.95 0.22,1.1 1.65,7.12 0.6,2.3 0.29,1.01 0.55,1.88 0.23,0.69 1.26,3.39 1.07,2.56 0.61,1.39 2.68,5.77 1.51,2.97 3.1,5.92 1.52,2.64 1.5,2.57 0.71,1.14 1.39,2.16 0.62,0.89 2.88,3.7 2.45,2.88 1.42,1.58 2.96,3.25 1.6,1.67 3.25,3.38 1.66,1.67 3.33,3.3 1.62,1.55 3.19,3.01 1.48,1.32 2.84,2.5 1.21,0.99 1.18,0.93 0.52,0.39 1,0.72 0.42,0.27 1.95,1.27 1,0.7 0.34,0.3 0.57,0.55 0.11,0.24 0.1,0.45 -0.13,0.21 -0.38,0.4 -0.38,0.19 -0.9,0.4 -0.66,0.21 -1.45,0.43 -0.94,0.24 -2.02,0.52 -1.24,0.31 -4.85,1.4 -3.34,1.17 -1.7,0.68 -6.86,2.98 -3.34,1.78 -6.58,3.72 -2.97,2.03 -2.9,2.05 -1.33,1.04 -2.56,2.09 -1.14,1.05 -1.72,1.83 -1.44,1.69 -0.8,1.01 -3.35,4.35 -1.52,2.2 -4.53,6.57 -1.34,1.93 -0.53,0.78 -0.98,1.42 -0.3,0.43 -1.27,1.85 -0.6,0.91 -0.59,0.88 -0.24,0.39 -0.46,0.71 -0.16,0.26 -0.61,0.89 -0.31,0.32 -0.12,0.03 -0.23,-0.04 -0.11,-0.14 -0.21,-0.38 -0.12,-0.31 -0.36,-1.2 -0.35,-1.32 -0.21,-0.86 -0.45,-1.83 -0.26,-1.05 -0.52,-2.18 -0.27,-1.15 -1.09,-4.73 -0.48,-2.19 -0.46,-2.12 -0.2,-0.93 -0.36,-1.76 -0.13,-0.68 -1.77,-8.1 -1.39,-5.38 -0.79,-2.65 -1.65,-5.28 -0.92,-2.59 -1.89,-5.13 -1.02,-2.49 -2.11,-4.93 -1.12,-2.36 -2.3,-4.67 -1.21,-2.22 -2.46,-4.35 -1.29,-2.04 -2.61,-3.98 L 54.62,102 47.11,92.36 42.17,86.54 39.78,83.98 37.39,81.48 36.23,80.33 33.91,78.08 32.78,77.05 30.55,75.07 29.47,74.19 27.33,72.49 26.3,71.75 23.26,69.32 22.56,68.64 22.34,68.39 22,67.93 v -0.12 l 0.25,-0.15 0.41,-0.09 0.31,-0.03 1.52,-0.12 1.11,-0.02 2.43,-0.01 1.46,0.03 3.08,0.1 1.68,0.08 3.41,0.16 2.01,0.07 0.89,0.02 3.27,0.01 1.33,-0.07 2.48,-0.21 1.11,-0.2 2.14,-0.45 1.11,-0.33 4.27,-1.44 2.59,-1.05 1.18,-0.58 2.28,-1.2 1.03,-0.67 2.01,-1.38 0.91,-0.77 1.77,-1.61 0.81,-0.89 1.58,-1.85 0.73,-1.03 1.42,-2.14 0.67,-1.18 1.31,-2.45 0.62,-1.36 1.035918,-1.691515 0.731252,-1.332508 0.78939,-1.468776 0.442186,-0.692186 0.472508,-0.890642 L 79.16,39.79 l 0.57,-1.34 0.31,-0.86 0.65,-1.83 0.33,-1.04 0.66,-2.12 0.31,-1.1 1.61,-5.69 0.93,-3.2 0.39,-1.31 0.75,-2.44 0.3,-0.94 0.58,-1.71 0.23,-0.59 0.42,-1.01 0.15,-0.26 0.28,-0.35 m -30.37,66.77 6.16,6.75 4.03,4.93 1.95,2.64 3.84,5.38 1.83,2.81 3.58,5.69 1.66,2.91 3.24,5.85 1.47,2.94 2.81,5.89 1.23,2.91 2.32,5.78 0.95,2.8 1.74,5.54 0.63,2.63 0.51,2.13 0.23,0.92 0.45,1.75 0.2,0.74 0.39,1.39 0.17,0.56 0.34,1.05 0.15,0.41 0.3,0.73 0.13,0.26 0.27,0.44 0.12,0.13 0.47,0.22 0.22,-0.23 0.86,-1.31 0.65,-1.32 0.35,-0.82 0.7,-1.74 0.35,-0.98 0.7,-2.01 0.34,-1.05 1.26,-4.27 0.44,-1.91 0.39,-1.85 0.12,-0.79 0.19,-1.48 v -0.54 l -0.18,-3.12 -0.29,-2.21 -0.23,-1.16 -1.12,-4.77 -0.85,-2.53 -1.89,-5.15 -1.18,-2.64 -2.52,-5.31 -1.46,-2.63 -3.04,-5.25 -1.67,-2.52 -3.44,-4.97 -1.82,-2.3 -3.71,-4.47 -1.92,-1.97 -3.86,-3.76 -1.95,-1.53 -2.1,-1.62 -1.18,-0.89 -0.52,-0.36 -1.93,-1.21 -0.95,-0.36 -1.96,-0.59 -1.29,-0.18 -1.36,-0.17 -0.81,-0.07 -1.72,-0.15 -1.03,-0.08 -8.44,-0.65 m 75.17,39.42 -1.12,0.29 -0.61,0.26 -1.24,0.6 -0.65,0.41 -2.64,1.89 -1.3,1.29 -2.54,2.77 -1.07,1.62 -1.39,2.15 -0.82,1.31 -0.32,0.56 -0.59,1.02 -0.18,0.36 -0.28,0.61 v 0.1 l 0.11,0.09 0.19,-0.09 0.46,-0.27 0.34,-0.26 0.75,-0.57 0.44,-0.39 0.94,-0.82 0.52,-0.48 3.91,-3.35 2.68,-2.02 1.25,-0.82 2.42,-1.5 0.98,-0.47 0.94,-0.42 0.39,-0.13 0.72,-0.19 h 0.26 l 1.21,-0.24 0.41,-0.38 0.01,-0.27 -0.11,-0.61 -0.25,-0.37 -0.64,-0.78 -0.52,-0.43 -1.17,-0.51 -0.95,-0.06 M 92.36,76 90,76.26 l -1.09,0.38 -0.25,0.26 -0.29,0.53 0.19,0.27 0.64,0.55 0.71,0.22 1.23,0.75 1.18,0.93 0.72,0.63 1.5,1.37 0.82,0.8 1.65,1.65 0.82,0.88 2.52,2.93 1.66,2.16 0.8,1.16 3.15,4.8 1.35,2.49 1.31,2.48 0.58,1.22 1.09,2.41 0.46,1.16 0.83,2.26 0.31,1.04 0.53,2.01 0.13,0.89 0.45,2.37 0.27,0.82 0.27,0.74 0.13,0.22 0.25,0.36 h 0.11 l 0.6,-0.28 0.32,-0.45 0.12,-0.33 0.23,-0.75 0.07,-0.47 0.13,-1 0.02,-0.58 -0.01,-2.49 -0.16,-1.42 -0.43,-2.94 -0.38,-1.49 -2.09,-6.63 -1.72,-4.02 -1.05,-1.85 -2.24,-3.63 -1.34,-1.72 -2.83,-3.38 L 101.6,81.92 99.92,80.29 98.93,79.37 98.48,78.98 96.84,77.61 96.15,77.17 94.84,76.44 94.23,76.25 93.01,76 m 70.11,-32.42 0.61,0.22 1.29,0.58 0.89,0.47 2.86,1.49 1.72,0.9 0.77,0.41 2.84,1.52 1.1,0.66 1.99,1.27 0.73,0.61 1.29,1.22 0.43,0.67 0.71,1.38 0.19,0.82 0.27,1.75 0.02,1.09 -0.04,2.32 -0.09,1.45 -0.21,3.1 -0.13,1.92 -0.86,12.66 -10.5,4.83 -3.9,1.8 -2.11,0.93 -0.88,0.33 -1.65,0.57 -0.71,0.15 -1.37,0.19 -0.65,-0.05 -1.27,-0.19 -0.67,-0.26 -1.38,-0.6 -0.78,-0.46 -1.66,-1.02 -1,-0.68 -2.13,-1.46 -1.3,-0.89 -1.92,-1.34 -1.04,-0.67 -0.44,-0.2 -0.82,-0.3 -0.38,0.02 -0.73,0.17 -0.36,0.29 -0.76,0.73 -0.42,0.6 -0.89,1.38 -0.53,0.97 -1.15,2.13 -0.71,1.37 -1.51,2.96 -0.94,1.83 -1.17,2.25 -0.51,0.95 -0.98,1.77 -0.43,0.72 -0.82,1.33 -0.36,0.51 -0.7,0.91 -0.31,0.31 -0.6,0.53 -0.27,0.14 -0.53,0.17 -0.26,-0.03 -0.5,-0.14 -0.24,-0.18 -0.5,-0.43 -0.26,-0.32 -0.71,-0.86 -0.74,-0.9 -0.47,-0.56 -2.07,-2.51 -1.14,-1.38 -1.8,-2.44 -1.41,-2.14 -0.77,-1.24 -3.2,-5.34 -1.54,-2.78 -1.51,-2.77 -0.68,-1.3 -1.28,-2.51 -0.51,-1.08 -0.93,-2.03 -0.29,-0.75 -0.26,-0.71 -0.07,-0.27 L 107,69.65 V 69.5 l 0.53,-1.23 0.43,-0.31 0.31,-0.13 0.69,-0.23 0.45,-0.1 0.97,-0.17 0.6,-0.06 1.3,-0.12 0.78,-0.04 1.66,-0.07 0.97,-0.01 2.06,-0.03 h 1.19 l 8,-0.19 2.65,-0.13 1.18,-0.07 2.24,-0.16 0.84,-0.09 6.15,-0.64 V 51.17 l 4.25,-1.56 2.2,-0.81 1.82,-0.67 1.01,-0.37 4.23,-1.56 1.9,-0.69 2.29,-0.84 1.24,-0.43 0.52,-0.17 1.79,-0.5 0.66,-0.05 m -37.68,25.55 -3.08,0.08 -1.2,0.06 -1.13,0.06 -0.47,0.04 -0.86,0.07 -0.31,0.04 -0.54,0.08 -0.15,0.04 -0.19,0.09 0.05,0.05 0.75,0.48 0.93,0.49 0.63,0.31 1.35,0.65 0.78,0.36 1.61,0.73 0.86,0.38 1.71,0.73 0.79,0.33 1.55,0.63 0.65,0.26 1.22,0.46 0.44,0.15 0.74,0.23 0.14,0.02 0.86,-0.24 0.97,-0.41 0.64,-0.31 1.35,-0.67 0.77,-0.41 1.58,-0.86 0.83,-0.47 6,-3.46 -13.92,-0.03 M 92,50 l -0.331866,0.994694 -0.29,1.097813 -0.22688,0.982508 L 90.8,54.33 l -0.33,1.39 -0.25,0.75 -1.2,3.09 -0.85,1.58 -1.84,3.14 -1.06,1.4 -2.18,2.66 -1.13,0.96 -0.89,0.77 -0.37,0.32 -0.68,0.61 -0.26,0.25 -0.85,0.86 -0.14,0.26 -0.11,0.42 0.2,0.09 0.56,0.12 h 0.5 l 1.68,-0.14 1.31,-0.21 0.73,-0.16 3.03,-0.77 1.53,-0.51 2.99,-1.08 1.21,-0.56 1.14,-0.56 0.45,-0.27 0.8,-0.53 0.24,-0.24 1,-1.16 0.32,-0.76 v -0.52 l -0.13,-1.19 -0.23,-0.91 -0.27,-0.98 -0.17,-0.59 -0.38,-1.27 -0.23,-0.77 -1.36,-4.98 -0.32,-1.38 -0.1,-0.53 -0.15,-0.94 V 51.75 L 92.71,50.51 92.27,50 m 68.34,-4.45 -1.16,0.4 -0.76,0.35 -1.67,0.7 -1.41,0.55 -0.79,0.29 -3.31,1.18 -1.51,0.48 -4.1,1.43 -1.05,0.42 -0.37,0.17 -0.62,0.3 -0.1,0.1 0.24,0.54 0.67,0.61 0.54,0.39 1.22,0.84 0.77,0.47 1.63,0.97 0.93,0.5 5.32,2.99 1.49,0.89 0.58,0.35 1.01,0.64 0.26,0.2 0.82,0.54 0.47,0.11 1.01,0.11 0.72,-0.13 0.76,-0.17 0.47,-0.13 0.98,-0.3 0.6,-0.21 1.26,-0.45 0.75,-0.29 1.59,-0.61 0.94,-0.37 3.33,-1.33 2,-0.84 0.82,-0.35 1.51,-0.67 0.5,-0.25 0.83,-0.42 0.09,-0.08 -0.06,-0.82 -0.31,-0.38 -0.24,-0.22 -0.56,-0.48 -0.39,-0.28 -0.83,-0.59 -0.52,-0.34 -1.11,-0.71 -0.68,-0.4 -1.42,-0.85 -0.83,-0.48 -1.74,-0.99 -0.99,-0.56 -2.02,-1.12 -1.12,-0.6 -0.47,-0.23 -1.65,-0.75 -0.61,-0.13 -1.15,-0.12 z"
       fill="rgb(9,59,189)"
       id="path1"
       style="fill:#3568ff;fill-opacity:1" />
    <path
       d="M 0,100 V 0 H 100 200 V 100 200 H 100 0 V 100 m 88.67,76.63 0.3,-0.43 0.98,-1.42 0.53,-0.78 1.34,-1.93 4.53,-6.57 1.52,-2.2 3.35,-4.35 0.8,-1.01 1.44,-1.69 1.72,-1.83 1.14,-1.05 2.56,-2.09 1.33,-1.04 2.9,-2.05 2.97,-2.03 6.58,-3.72 3.34,-1.78 6.86,-2.98 1.7,-0.68 3.34,-1.17 4.85,-1.4 1.24,-0.31 2.02,-0.52 0.94,-0.24 1.45,-0.43 0.66,-0.21 0.9,-0.4 0.38,-0.19 0.38,-0.4 0.13,-0.21 -0.1,-0.45 -0.11,-0.24 -0.57,-0.55 -0.34,-0.3 -1,-0.7 -1.95,-1.27 -0.42,-0.27 -1,-0.72 -0.52,-0.39 -1.18,-0.93 -1.21,-0.99 -2.84,-2.5 -1.48,-1.32 -3.19,-3.01 -1.62,-1.55 -3.33,-3.3 -1.66,-1.67 -3.25,-3.38 -1.6,-1.67 -2.96,-3.25 -1.42,-1.58 -2.45,-2.88 -2.88,-3.7 -0.62,-0.89 -1.39,-2.16 -0.71,-1.14 -1.5,-2.57 -1.52,-2.64 -3.1,-5.92 -1.51,-2.97 -2.68,-5.77 -0.61,-1.39 -1.07,-2.56 -1.26,-3.39 -0.23,-0.69 -0.55,-1.88 -0.29,-1.01 -0.6,-2.3 -1.65,-7.12 -0.22,-1.1 -0.61,-2.95 -0.33,-1.57 -0.74,-3.56 -0.37,-1.81 -0.78,-3.72 -1.11,-5.29 -0.35,-1.65 -0.63,-3.19 -0.3,-1.55 -0.48,-2.75 -0.22,-1.29 -0.3,-2 -0.06,-0.44 -0.07,-0.68 -0.03,-0.7 0.03,-0.65 -0.03,-0.88 -0.02,-0.37 -0.15,-0.28 -0.08,-0.07 -0.28,0.35 -0.15,0.26 -0.42,1.01 -0.23,0.59 -0.58,1.71 -0.3,0.94 -0.75,2.44 -0.39,1.31 -0.93,3.2 -1.61,5.69 -0.31,1.1 -0.66,2.12 -0.33,1.04 -0.65,1.83 -0.31,0.86 -0.57,1.34 -0.66,1.21 -0.17,0.21 -0.48,0.73 -0.26,0.41 -0.58,1.03 -1.83,3.62 -0.62,1.36 -1.31,2.45 -0.67,1.18 -1.42,2.14 -0.73,1.03 -1.58,1.85 -0.81,0.89 -1.77,1.61 -0.91,0.77 -2.01,1.38 -1.03,0.67 -2.28,1.2 -1.18,0.58 -2.59,1.05 -4.27,1.44 -1.11,0.33 -2.14,0.45 -1.11,0.2 -2.48,0.21 -1.33,0.07 -3.27,-0.01 -0.89,-0.02 -2.01,-0.07 -3.41,-0.16 -1.68,-0.08 -3.08,-0.1 -1.46,-0.03 -2.43,0.01 -1.11,0.02 -1.52,0.12 -0.31,0.03 -0.41,0.09 -0.25,0.15 v 0.12 l 0.34,0.46 0.22,0.25 0.7,0.68 3.04,2.43 1.03,0.74 2.14,1.7 1.08,0.88 2.23,1.98 1.13,1.03 2.32,2.25 1.16,1.15 2.39,2.5 2.39,2.56 4.94,5.82 7.51,9.64 1.35,1.83 2.61,3.98 1.29,2.04 2.46,4.35 1.21,2.22 2.3,4.67 1.12,2.36 2.11,4.93 1.02,2.49 1.89,5.13 0.92,2.59 1.65,5.28 0.79,2.65 1.39,5.38 1.77,8.1 0.13,0.68 0.36,1.76 0.2,0.93 0.46,2.12 0.48,2.19 1.09,4.73 0.27,1.15 0.52,2.18 0.26,1.05 0.45,1.83 0.21,0.86 0.35,1.32 0.36,1.2 0.12,0.31 0.21,0.38 0.11,0.14 0.23,0.04 0.12,-0.03 0.31,-0.32 0.61,-0.89 0.16,-0.26 0.46,-0.71 0.24,-0.39 0.59,-0.88 0.6,-0.91 m 47.54,-85.26 0.94,-1.83 1.51,-2.96 0.71,-1.37 1.15,-2.13 0.53,-0.97 0.89,-1.38 0.42,-0.6 0.76,-0.73 0.36,-0.29 0.73,-0.17 0.38,-0.02 0.82,0.3 0.44,0.2 1.04,0.67 1.92,1.34 1.3,0.89 2.13,1.46 1,0.68 1.66,1.02 0.78,0.46 1.38,0.6 0.67,0.26 1.27,0.19 0.65,0.05 1.37,-0.19 0.71,-0.15 1.65,-0.57 0.88,-0.33 2.11,-0.93 3.9,-1.8 10.5,-4.83 0.86,-12.66 0.13,-1.92 0.21,-3.1 0.09,-1.45 0.04,-2.32 -0.02,-1.09 -0.27,-1.75 -0.19,-0.82 -0.71,-1.38 -0.43,-0.67 -1.29,-1.22 -0.73,-0.61 -1.99,-1.27 -1.1,-0.66 -2.84,-1.52 -0.77,-0.41 -1.72,-0.9 -2.86,-1.49 -0.89,-0.47 -1.29,-0.58 -0.61,-0.22 -1.21,-0.06 -0.66,0.05 -1.79,0.5 -0.52,0.17 -1.24,0.43 -2.29,0.84 -1.9,0.69 -4.23,1.56 -1.01,0.37 -1.82,0.67 -2.2,0.81 -4.25,1.56 v 7.27 7.28 l -6.15,0.64 -0.84,0.09 -2.24,0.16 -1.18,0.07 -2.65,0.13 -8,0.19 h -1.19 l -2.06,0.03 -0.97,0.01 -1.66,0.07 -0.78,0.04 -1.3,0.12 -0.6,0.06 -0.97,0.17 -0.45,0.1 -0.69,0.23 -0.31,0.13 -0.43,0.31 -0.53,1.23 v 0.15 l 0.12,0.49 0.07,0.27 0.26,0.71 0.29,0.75 0.93,2.03 0.51,1.08 1.28,2.51 0.68,1.3 1.51,2.77 1.54,2.78 3.2,5.34 0.77,1.24 1.41,2.14 1.8,2.44 1.14,1.38 2.07,2.51 0.47,0.56 0.74,0.9 0.71,0.86 0.26,0.32 0.5,0.43 0.24,0.18 0.5,0.14 0.26,0.03 0.53,-0.17 0.27,-0.14 0.6,-0.53 0.31,-0.31 0.7,-0.91 0.36,-0.51 0.82,-1.33 0.43,-0.72 0.98,-1.77 0.51,-0.95 m -39.07,50.75 -0.63,-2.63 -1.74,-5.54 -0.95,-2.8 -2.32,-5.78 -1.23,-2.91 -2.81,-5.89 -1.47,-2.94 -3.24,-5.85 -1.66,-2.91 -3.58,-5.69 -1.83,-2.81 -3.84,-5.38 -1.95,-2.64 -4.03,-4.93 -6.16,-6.75 -6.68,-6.74 8.44,0.65 1.03,0.08 1.72,0.15 0.81,0.07 1.36,0.17 1.29,0.18 1.96,0.59 0.95,0.36 1.93,1.21 0.52,0.36 1.18,0.89 2.1,1.62 1.95,1.53 3.86,3.76 1.92,1.97 3.71,4.47 1.82,2.3 3.44,4.97 1.67,2.52 3.04,5.25 1.46,2.63 2.52,5.31 1.18,2.64 1.89,5.15 0.85,2.53 1.12,4.77 0.23,1.16 0.29,2.21 0.18,3.12 v 0.54 l -0.19,1.48 -0.12,0.79 -0.39,1.85 -0.44,1.91 -1.26,4.27 -0.34,1.05 -0.7,2.01 -0.35,0.98 -0.7,1.74 -0.35,0.82 -0.65,1.32 -0.86,1.31 -0.22,0.23 -0.47,-0.22 -0.12,-0.13 -0.27,-0.44 -0.13,-0.26 -0.3,-0.73 -0.15,-0.41 -0.34,-1.05 -0.17,-0.56 -0.39,-1.39 -0.2,-0.74 -0.45,-1.75 -0.23,-0.92 M 111,128.69 v -0.1 l 0.28,-0.61 0.18,-0.36 0.59,-1.02 0.32,-0.56 0.82,-1.31 1.39,-2.15 1.07,-1.62 2.54,-2.77 1.3,-1.29 2.64,-1.89 0.65,-0.41 1.24,-0.6 0.61,-0.26 1.12,-0.29 0.54,-0.1 0.95,0.06 1.17,0.51 0.52,0.43 0.64,0.78 0.25,0.37 0.11,0.61 -0.01,0.27 -0.41,0.38 -1.21,0.24 h -0.26 l -0.72,0.19 -0.39,0.13 -0.94,0.42 -0.98,0.47 -2.42,1.5 -1.25,0.82 -2.68,2.02 -3.91,3.35 -0.52,0.48 -0.94,0.82 -0.44,0.39 -0.75,0.57 -0.34,0.26 -0.46,0.27 -0.19,0.09 m 1.44,-16.29 -0.13,-0.89 -0.53,-2.01 -0.31,-1.04 -0.83,-2.26 -0.46,-1.16 -1.09,-2.41 -0.58,-1.22 -1.31,-2.48 -1.35,-2.49 -3.15,-4.8 -0.8,-1.16 -1.66,-2.16 -2.52,-2.93 -0.82,-0.88 -1.65,-1.65 -0.82,-0.8 -1.5,-1.37 L 92.32,80.15 91.14,79.22 89.91,78.47 89.2,78.25 88.56,77.7 88.37,77.43 88.66,76.9 88.91,76.64 90,76.26 92.36,76 h 0.65 l 1.22,0.25 0.61,0.19 1.31,0.73 0.69,0.44 1.64,1.37 0.45,0.39 0.99,0.92 1.68,1.63 1.67,1.65 2.83,3.38 1.34,1.72 2.24,3.63 1.05,1.85 1.72,4.02 2.09,6.63 0.38,1.49 0.43,2.94 0.16,1.42 0.01,2.49 -0.02,0.58 -0.13,1 -0.07,0.47 -0.23,0.75 -0.12,0.33 -0.32,0.45 -0.6,0.28 h -0.11 l -0.25,-0.36 -0.13,-0.22 -0.27,-0.74 -0.27,-0.82 M 81.96,69.3 l 1.13,-0.96 2.18,-2.66 1.06,-1.4 1.84,-3.14 0.85,-1.58 1.2,-3.09 0.25,-0.75 0.33,-1.39 0.2,-1.86 V 51.79 L 91.29,50.73 92,50 h 0.27 l 0.44,0.51 0.3,1.24 v 0.24 l 0.15,0.94 0.1,0.53 0.32,1.38 1.36,4.98 0.23,0.77 0.38,1.27 0.17,0.59 0.27,0.98 0.23,0.91 0.13,1.19 v 0.52 l -0.32,0.76 -1,1.16 -0.24,0.24 -0.8,0.53 -0.45,0.27 -1.14,0.56 -1.21,0.56 -2.99,1.08 -1.53,0.51 -3.03,0.77 -0.73,0.16 -1.31,0.21 -1.68,0.14 h -0.5 l -0.56,-0.12 -0.2,-0.09 0.11,-0.42 0.14,-0.26 0.85,-0.86 0.26,-0.25 0.68,-0.61 0.37,-0.32 m 42.19,3.01 -0.86,-0.38 -1.61,-0.73 -0.78,-0.36 -1.35,-0.65 -0.63,-0.31 -0.93,-0.49 -0.75,-0.48 -0.05,-0.05 0.19,-0.09 0.15,-0.04 0.54,-0.08 0.31,-0.04 0.86,-0.07 0.47,-0.04 1.13,-0.06 1.2,-0.06 3.08,-0.08 5.35,-0.04 13.92,0.03 -6,3.46 -0.83,0.47 -1.58,0.86 -0.77,0.41 -1.35,0.67 -0.64,0.31 -0.97,0.41 -0.86,0.24 -0.14,-0.02 -0.74,-0.23 -0.44,-0.15 -1.22,-0.46 -0.65,-0.26 -1.55,-0.63 -0.79,-0.33 m 33.45,-12.5 -0.26,-0.2 -1.01,-0.64 -0.58,-0.35 -1.49,-0.89 -5.32,-2.99 -0.93,-0.5 -1.63,-0.97 -0.77,-0.47 -1.22,-0.84 -0.54,-0.39 -0.67,-0.61 -0.24,-0.54 0.1,-0.1 0.62,-0.3 0.37,-0.17 1.05,-0.42 4.1,-1.43 1.51,-0.48 3.31,-1.18 0.79,-0.29 1.41,-0.55 1.67,-0.7 0.76,-0.35 1.16,-0.4 0.56,-0.13 1.15,0.12 0.61,0.13 1.65,0.75 0.47,0.23 1.12,0.6 2.02,1.12 0.99,0.56 1.74,0.99 0.83,0.48 1.42,0.85 0.68,0.4 1.11,0.71 0.52,0.34 0.83,0.59 0.39,0.28 0.56,0.48 0.24,0.22 0.31,0.38 0.06,0.82 -0.09,0.08 -0.83,0.42 -0.5,0.25 -1.51,0.67 -0.82,0.35 -2,0.84 -3.33,1.33 -0.94,0.37 -1.59,0.61 -0.75,0.29 -1.26,0.45 -0.6,0.21 -0.98,0.3 -0.47,0.13 -0.76,0.17 -0.72,0.13 -1.01,-0.11 -0.47,-0.11 z"
       fill="rgb(254,254,254)"
       id="path2"
       style="fill:none" />
  </g>
</svg>
