<?xml version="1.0" encoding="UTF-8" standalone="no"?>
<!-- Created with Inkscape (http://www.inkscape.org/) -->

<svg
   version="1.1"
   id="svg1"
   width="548"
   height="548"
   viewBox="0 0 548 548"
   sodipodi:docname="newlogo.png"
   inkscape:export-filename="newlogo.svg"
   inkscape:export-xdpi="96"
   inkscape:export-ydpi="96"
   xmlns:inkscape="http://www.inkscape.org/namespaces/inkscape"
   xmlns:sodipodi="http://sodipodi.sourceforge.net/DTD/sodipodi-0.dtd"
   xmlns="http://www.w3.org/2000/svg"
   xmlns:svg="http://www.w3.org/2000/svg">
  <defs
     id="defs1" />
  <sodipodi:namedview
     id="namedview1"
     pagecolor="#ffffff"
     bordercolor="#000000"
     borderopacity="0.25"
     inkscape:showpageshadow="2"
     inkscape:pageopacity="0.0"
     inkscape:pagecheckerboard="0"
     inkscape:deskcolor="#d1d1d1"
     showgrid="false" />
  <g
     inkscape:groupmode="layer"
     inkscape:label="Image"
     id="g1">
    <path
       style="fill:#3568ff;fill-opacity:1;stroke-width:1.21776"
       d="m 270.7216,543.57018 c -19.94917,-4.15753 -30.99655,-10.04607 -44.73365,-23.84421 -11.8917,-11.94453 -11.94746,-11.96212 -23.62059,-7.45051 -47.68638,18.43056 -86.29424,-18.0287 -85.94518,-81.16219 0.0945,-17.08801 0.37226,-16.30069 -11.43618,-32.41459 C 96.600492,387.25573 85.295002,375.27409 75.616493,367.57268 60.323602,355.40374 62.428413,350.72764 86.208288,344.04165 128.25652,332.2193 140.93977,307.61212 116.39154,285.48218 91.091047,262.67409 64.151578,211.43236 68.452339,194.29675 71.029578,184.02824 99.383277,180.437 135.50716,185.8037 c 25.242,3.75005 24.51096,4.71763 26.27989,-34.78386 0.73483,-16.40937 1.80944,-35.86315 2.388,-43.23062 0.57856,-7.36747 1.62207,-27.917246 2.31891,-45.666157 1.65327,-42.110039 2.33562,-45.057269 10.43174,-45.057269 6.01612,0 6.68412,3.106007 7.93435,36.893385 0.70506,19.054154 2.11253,37.606216 3.62526,47.784891 1.36001,9.1511 2.52075,21.92681 2.57943,28.39046 0.2658,29.28081 3.68247,31.73991 16.90939,12.17028 15.58313,-23.05573 17.65434,-24.78541 31.23284,-26.08263 16.99927,-1.62402 15.57849,4.11632 19.98997,-80.764948 1.61285,-31.0329314 3.98661,-37.5513227 12.49661,-34.3158309 3.87132,1.4718737 4.50664,3.4268818 4.51478,13.8929029 0.004,4.801056 0.51668,10.64717 1.13987,12.991366 1.23591,4.649017 6.09008,42.707025 10.28776,80.65876 1.62191,14.66378 1.84777,15.00636 12.22338,18.5408 13.32765,4.54003 22.62029,8.82564 37.2304,17.17 25.27548,14.43574 32.63174,19.05151 43.64875,27.38787 5.79796,4.38719 16.56968,12.53616 23.93715,18.10882 31.30288,23.67707 33.17535,27.98022 21.70411,49.87846 -6.1834,11.80392 -19.47743,41.35898 -20.58065,45.75457 -1.32737,5.2887 4.65074,12.03117 27.494,31.00937 72.28976,60.05841 80.55497,90.02556 27.39969,99.3431 -17.66752,3.09692 -19.16683,4.75076 -14.47873,15.97097 10.61201,25.39811 -23.13238,56.45138 -61.38243,56.4872 -6.74353,0.006 -10.25358,3.40177 -12.88937,12.46858 -3.89064,13.38332 -17.34906,27.17496 -32.54312,33.34885 -14.75238,5.99443 -57.18333,11.81263 -68.67754,9.41716 z M 149.44789,371.7863 c 21.93851,-23.66527 6.55663,-43.97698 -16.02918,-21.16648 -10.91292,11.02148 -11.26026,12.40317 -5.82489,23.17058 6.08766,12.05959 9.07011,11.78609 21.85407,-2.0041 z m 217.67033,-0.82561 c 8.22923,-9.56707 -12.08263,-21.33774 -54.99264,-31.8681 -11.3459,-2.78435 -37.01276,-12.25908 -53.58162,-19.77926 -7.36747,-3.3439 -19.14934,-8.69482 -26.18193,-11.89091 -31.95849,-14.52415 -66.03859,-47.27646 -85.97415,-82.6245 -10.21471,-18.11188 -34.45372,-21.06715 -33.71587,-4.11072 0.90607,20.82251 20.29054,60.39861 37.06346,75.67025 10.2099,9.29607 51.76364,34.8974 89.32426,55.03287 33.80401,18.12161 118.20928,31.02074 128.05849,19.57037 z M 308.33145,266.5506 c 17.80338,-4.67805 35.20374,-34.53009 28.58915,-49.04751 -1.7371,-3.81253 -11.31752,-10.50505 -27.88241,-19.4776 -7.05622,-3.82209 -16.09812,-9.44078 -20.0931,-12.48598 -25.03151,-19.08044 -39.28943,-26.44973 -49.87074,-25.77596 -41.90099,2.66806 -29.43045,57.1543 20.70372,90.4587 8.02825,5.33321 16.2408,11.03252 18.25011,12.6651 7.8939,6.41391 16.07239,7.40258 30.30327,3.66325 z m 63.83999,-70.08629 c 1.04387,-10.7744 -18.58815,-23.78446 -60.46481,-40.06984 -7.8113,-3.03773 -21.43285,-5.55059 -24.25128,-4.4738 -12.88178,4.92152 25.13752,36.18841 49.9255,41.05849 4.86316,0.95545 12.67808,3.11159 17.36647,4.79141 11.79974,4.22776 16.92519,3.84352 17.42412,-1.30626 z"
       id="path1" />
  </g>
</svg>
